<svg width="16" height="16" viewBox="0 0 16 16" fill="none" xmlns="http://www.w3.org/2000/svg">
<path d="M13.3332 7.99992V11.9999C13.3332 13.4733 12.1398 14.6666 10.6665 14.6666H5.33317C3.85984 14.6666 2.6665 13.4733 2.6665 11.9999V7.99992C2.6665 7.63325 2.9665 7.33325 3.33317 7.33325H4.6465C5.01317 7.33325 5.31317 7.63325 5.31317 7.99992V10.0933C5.31317 10.5866 5.5865 11.0399 6.01984 11.2733C6.21317 11.3799 6.4265 11.4333 6.6465 11.4333C6.89984 11.4333 7.15317 11.3599 7.37317 11.2133L8.0065 10.7999L8.59317 11.1933C8.99984 11.4666 9.51984 11.4999 9.95317 11.2666C10.3932 11.0333 10.6665 10.5866 10.6665 10.0866V7.99992C10.6665 7.63325 10.9665 7.33325 11.3332 7.33325H12.6665C13.0332 7.33325 13.3332 7.63325 13.3332 7.99992Z" fill="#E8FBED"/>
<path d="M14.3332 4.66659V5.33325C14.3332 6.06659 13.9798 6.66659 12.9998 6.66659H2.99984C1.97984 6.66659 1.6665 6.06659 1.6665 5.33325V4.66659C1.6665 3.93325 1.97984 3.33325 2.99984 3.33325H12.9998C13.9798 3.33325 14.3332 3.93325 14.3332 4.66659Z" fill="#E8FBED"/>
<path d="M7.76067 3.33329H4.08067C3.854 3.08663 3.86067 2.70663 4.10067 2.46663L5.04734 1.51996C5.294 1.27329 5.70067 1.27329 5.94734 1.51996L7.76067 3.33329Z" fill="#E8FBED"/>
<path d="M11.9129 3.33329H8.23291L10.0462 1.51996C10.2929 1.27329 10.6996 1.27329 10.9462 1.51996L11.8929 2.46663C12.1329 2.70663 12.1396 3.08663 11.9129 3.33329Z" fill="#E8FBED"/>
<path d="M9.31281 7.33325C9.67947 7.33325 9.97947 7.63325 9.97947 7.99992V10.0866C9.97947 10.6199 9.38614 10.9399 8.94614 10.6399L8.34614 10.2399C8.12614 10.0933 7.83947 10.0933 7.61281 10.2399L6.98614 10.6533C6.54614 10.9466 5.95947 10.6266 5.95947 10.0999V7.99992C5.95947 7.63325 6.25947 7.33325 6.62614 7.33325H9.31281Z" fill="#E8FBED"/>
</svg>
