<svg width="16" height="16" viewBox="0 0 16 16" fill="none" xmlns="http://www.w3.org/2000/svg">
<path d="M13.3138 6.66675H2.64709V12.0001C2.64709 14.0001 3.31376 14.6667 5.31376 14.6667H10.6471C12.6471 14.6667 13.3138 14.0001 13.3138 12.0001V6.66675Z" stroke="#64748B" stroke-width="1.06667" stroke-miterlimit="10" stroke-linecap="round" stroke-linejoin="round"/>
<path d="M14.3333 4.66659V5.33325C14.3333 6.06659 13.98 6.66659 13 6.66659H2.99996C1.97996 6.66659 1.66663 6.06659 1.66663 5.33325V4.66659C1.66663 3.93325 1.97996 3.33325 2.99996 3.33325H13C13.98 3.33325 14.3333 3.93325 14.3333 4.66659Z" stroke="#64748B" stroke-width="1.06667" stroke-miterlimit="10" stroke-linecap="round" stroke-linejoin="round"/>
<path d="M7.76055 3.33329H4.08055C3.85388 3.08663 3.86055 2.70663 4.10055 2.46663L5.04721 1.51996C5.29388 1.27329 5.70055 1.27329 5.94721 1.51996L7.76055 3.33329Z" stroke="#64748B" stroke-width="1.33333" stroke-miterlimit="10" stroke-linecap="round" stroke-linejoin="round"/>
<path d="M11.913 3.33329H8.23303L10.0464 1.51996C10.293 1.27329 10.6997 1.27329 10.9464 1.51996L11.893 2.46663C12.133 2.70663 12.1397 3.08663 11.913 3.33329Z" stroke="#64748B" stroke-width="1.33333" stroke-miterlimit="10" stroke-linecap="round" stroke-linejoin="round"/>
<path d="M5.95959 6.66675V10.0934C5.95959 10.6267 6.54626 10.9401 6.99293 10.6534L7.6196 10.2401C7.84626 10.0934 8.13293 10.0934 8.35293 10.2401L8.94626 10.6401C9.38626 10.9334 9.9796 10.6201 9.9796 10.0867V6.66675H5.95959Z" stroke="#64748B" stroke-width="1.33333" stroke-miterlimit="10" stroke-linecap="round" stroke-linejoin="round"/>
</svg>
