<svg width="16" height="16" viewBox="0 0 16 16" fill="none" xmlns="http://www.w3.org/2000/svg">
<path d="M11.3334 12.2868H8.66671L5.70003 14.2601C5.26003 14.5535 4.66671 14.2402 4.66671 13.7068V12.2868C2.66671 12.2868 1.33337 10.9535 1.33337 8.95349V4.95345C1.33337 2.95345 2.66671 1.62012 4.66671 1.62012H11.3334C13.3334 1.62012 14.6667 2.95345 14.6667 4.95345V8.95349C14.6667 10.9535 13.3334 12.2868 11.3334 12.2868Z" stroke="#686881" stroke-width="1.06667" stroke-miterlimit="10" stroke-linecap="round" stroke-linejoin="round"/>
<path d="M7.99996 7.57324V7.43327C7.99996 6.97993 8.27998 6.73992 8.55998 6.54659C8.83331 6.35992 9.10661 6.11993 9.10661 5.67993C9.10661 5.0666 8.61329 4.57324 7.99996 4.57324C7.38663 4.57324 6.89331 5.0666 6.89331 5.67993" stroke="#686881" stroke-width="1.06667" stroke-linecap="round" stroke-linejoin="round"/>
<path d="M7.99696 9.16659H8.00296" stroke="#191D23" stroke-width="1.33333" stroke-linecap="round" stroke-linejoin="round"/>
</svg>
