<svg width="16" height="16" viewBox="0 0 16 16" fill="none" xmlns="http://www.w3.org/2000/svg">
<path d="M12.0001 4.77325C11.9601 4.76659 11.9134 4.76659 11.8734 4.77325C10.9534 4.73992 10.2201 3.98659 10.2201 3.05325C10.2201 2.09992 10.9868 1.33325 11.9401 1.33325C12.8934 1.33325 13.6601 2.10659 13.6601 3.05325C13.6534 3.98659 12.9201 4.73992 12.0001 4.77325Z" stroke="#64748B" stroke-width="1.06667" stroke-linecap="round" stroke-linejoin="round"/>
<path d="M11.3136 9.62669C12.2269 9.78003 13.2336 9.62003 13.9402 9.14669C14.8802 8.52003 14.8802 7.49336 13.9402 6.86669C13.2269 6.39336 12.2069 6.23336 11.2936 6.39336" stroke="#64748B" stroke-width="1.06667" stroke-linecap="round" stroke-linejoin="round"/>
<path d="M3.98031 4.77325C4.02031 4.76659 4.06698 4.76659 4.10698 4.77325C5.02698 4.73992 5.76031 3.98659 5.76031 3.05325C5.76031 2.09992 4.99365 1.33325 4.04031 1.33325C3.08698 1.33325 2.32031 2.10659 2.32031 3.05325C2.32698 3.98659 3.06031 4.73992 3.98031 4.77325Z" stroke="#64748B" stroke-width="1.33333" stroke-linecap="round" stroke-linejoin="round"/>
<path d="M4.66699 9.62669C3.75366 9.78003 2.74699 9.62003 2.04033 9.14669C1.10033 8.52003 1.10033 7.49336 2.04033 6.86669C2.75366 6.39336 3.77366 6.23336 4.68699 6.39336" stroke="#64748B" stroke-width="1.33333" stroke-linecap="round" stroke-linejoin="round"/>
<path d="M8.00009 9.75348C7.96009 9.74681 7.91343 9.74681 7.87343 9.75348C6.95343 9.72015 6.22009 8.96681 6.22009 8.03348C6.22009 7.08014 6.98676 6.31348 7.94009 6.31348C8.89342 6.31348 9.66009 7.08681 9.66009 8.03348C9.65343 8.96681 8.92009 9.72681 8.00009 9.75348Z" stroke="#64748B" stroke-width="1.33333" stroke-linecap="round" stroke-linejoin="round"/>
<path d="M6.05986 11.8532C5.11986 12.4799 5.11986 13.5066 6.05986 14.1332C7.12653 14.8466 8.87319 14.8466 9.93986 14.1332C10.8799 13.5066 10.8799 12.4799 9.93986 11.8532C8.87986 11.1466 7.12653 11.1466 6.05986 11.8532Z" stroke="#64748B" stroke-width="1.33333" stroke-linecap="round" stroke-linejoin="round"/>
</svg>
