<svg width="16" height="16" viewBox="0 0 16 16" fill="none" xmlns="http://www.w3.org/2000/svg">
<path d="M14.6667 8.00008V11.3334C14.6667 13.3334 13.3334 14.6667 11.3334 14.6667H4.66671C2.66671 14.6667 1.33337 13.3334 1.33337 11.3334V8.00008C1.33337 6.18675 2.42671 4.92008 4.12671 4.70675C4.30004 4.68008 4.48004 4.66675 4.66671 4.66675H11.3334C11.5067 4.66675 11.6734 4.67341 11.8334 4.70007C13.5534 4.90007 14.6667 6.17341 14.6667 8.00008Z" stroke="#64748B" stroke-width="1.06667" stroke-linecap="round" stroke-linejoin="round"/>
<path d="M11.8342 4.69992C11.6742 4.67325 11.5076 4.66659 11.3342 4.66659H4.66756C4.4809 4.66659 4.3009 4.67992 4.12756 4.70659C4.2209 4.51992 4.35423 4.34659 4.51423 4.18659L6.6809 2.01325C7.59423 1.10659 9.07423 1.10659 9.98756 2.01325L11.1542 3.19326C11.5809 3.61326 11.8076 4.14658 11.8342 4.69992Z" stroke="#64748B" stroke-width="1.06667" stroke-linecap="round" stroke-linejoin="round"/>
<path d="M14.6667 8.33325H12.6667C11.9334 8.33325 11.3334 8.93325 11.3334 9.66659C11.3334 10.3999 11.9334 10.9999 12.6667 10.9999H14.6667" stroke="#64748B" stroke-width="1.33333" stroke-linecap="round" stroke-linejoin="round"/>
</svg>
