<svg width="19" height="18" viewBox="0 0 19 18" fill="none" xmlns="http://www.w3.org/2000/svg">
<path d="M15.478 7.5H3.47803V13.5C3.47803 15.75 4.22803 16.5 6.47803 16.5H12.478C14.728 16.5 15.478 15.75 15.478 13.5V7.5Z" stroke="#E8FBED" stroke-miterlimit="10" stroke-linecap="round" stroke-linejoin="round"/>
<path d="M16.625 5.25V6C16.625 6.825 16.2275 7.5 15.125 7.5H3.875C2.7275 7.5 2.375 6.825 2.375 6V5.25C2.375 4.425 2.7275 3.75 3.875 3.75H15.125C16.2275 3.75 16.625 4.425 16.625 5.25Z" stroke="#E8FBED" stroke-miterlimit="10" stroke-linecap="round" stroke-linejoin="round"/>
<path d="M9.23057 3.75008H5.09057C4.83557 3.47258 4.84307 3.04508 5.11307 2.77508L6.17807 1.71008C6.45557 1.43258 6.91307 1.43258 7.19057 1.71008L9.23057 3.75008Z" stroke="#E8FBED" stroke-miterlimit="10" stroke-linecap="round" stroke-linejoin="round"/>
<path d="M13.9022 3.75008H9.76221L11.8022 1.71008C12.0797 1.43258 12.5372 1.43258 12.8147 1.71008L13.8797 2.77508C14.1497 3.04508 14.1572 3.47258 13.9022 3.75008Z" stroke="#E8FBED" stroke-miterlimit="10" stroke-linecap="round" stroke-linejoin="round"/>
<path d="M7.20459 7.5V11.355C7.20459 11.955 7.86459 12.3075 8.36709 11.985L9.07209 11.52C9.32709 11.355 9.64959 11.355 9.89709 11.52L10.5646 11.97C11.0596 12.3 11.7271 11.9475 11.7271 11.3475V7.5H7.20459Z" stroke="#E8FBED" stroke-miterlimit="10" stroke-linecap="round" stroke-linejoin="round"/>
</svg>
