<svg width="40" height="40" viewBox="0 0 40 40" fill="none" xmlns="http://www.w3.org/2000/svg">
<rect x="0.543981" y="0.543981" width="38.912" height="38.912" rx="19.456" stroke="#BBF3C9" stroke-width="1.08796"/>
<g clip-path="url(#clip0_40_304)">
<path d="M28.7217 16.2485V28.3218C28.7217 28.4718 28.6921 28.6204 28.6347 28.759C28.5773 28.8977 28.4931 29.0236 28.387 29.1297C28.2809 29.2358 28.155 29.32 28.0164 29.3774C27.8777 29.4348 27.7292 29.4644 27.5791 29.4644H12.4209C12.2709 29.4644 12.1223 29.4348 11.9836 29.3774C11.845 29.32 11.7191 29.2358 11.613 29.1297C11.5069 29.0236 11.4227 28.8977 11.3653 28.759C11.3079 28.6204 11.2783 28.4718 11.2783 28.3218V16.2485H28.7217Z" fill="#34DC5E"/>
<path d="M27.0078 16.2485V25.1987C27.0078 26.027 26.6788 26.8214 26.0931 27.4071C25.5074 27.9927 24.713 28.3218 23.8848 28.3218H11.2783C11.2783 28.6248 11.3987 28.9154 11.613 29.1297C11.8272 29.344 12.1179 29.4644 12.4209 29.4644H27.5791C27.7291 29.4644 27.8777 29.4348 28.0163 29.3774C28.155 29.32 28.2809 29.2358 28.387 29.1297C28.4931 29.0236 28.5773 28.8976 28.6347 28.759C28.6921 28.6204 28.7217 28.4718 28.7217 28.3218V16.2485H27.0078Z" fill="#2BA84A"/>
<path d="M28.8931 13.3727H11.1069C10.7914 13.3727 10.5356 13.6285 10.5356 13.944V15.6773C10.5356 15.9928 10.7914 16.2485 11.1069 16.2485H28.8931C29.2086 16.2485 29.4644 15.9928 29.4644 15.6773V13.944C29.4644 13.6285 29.2086 13.3727 28.8931 13.3727Z" fill="#FCD34D"/>
<path d="M28.8931 13.3727H28.3218C28.3218 13.6003 28.2769 13.8257 28.1898 14.036C28.1027 14.2463 27.9751 14.4374 27.8141 14.5983C27.6532 14.7593 27.4621 14.8869 27.2518 14.974C27.0415 15.0612 26.8161 15.106 26.5885 15.106H25.5647C25.4792 15.106 25.3945 15.0891 25.3155 15.0563C25.2365 15.0235 25.1648 14.9754 25.1045 14.9147C25.0442 14.8541 24.9964 14.7822 24.964 14.703C24.9316 14.6239 24.9151 14.5391 24.9156 14.4535C24.9209 13.459 24.9237 11.6786 24.9237 11.6786C24.9237 11.5894 24.9028 11.5014 24.8627 11.4217C24.8226 11.3421 24.7643 11.2729 24.6927 11.2197C24.621 11.1666 24.5379 11.131 24.4499 11.1158C24.362 11.1006 24.2718 11.1062 24.1864 11.1321L20.9118 12.1277C21.0981 12.3446 21.2003 12.6213 21.1997 12.9073V13.0383L21.2942 12.9755C21.3362 12.9475 21.3877 12.9373 21.4373 12.9472C21.4868 12.9571 21.5304 12.9863 21.5585 13.0284L22.9419 15.106H10.5356V15.6773C10.5356 15.8288 10.5958 15.9741 10.703 16.0812C10.8101 16.1884 10.9554 16.2486 11.1069 16.2486H28.8931C29.0446 16.2486 29.1899 16.1884 29.297 16.0812C29.4042 15.9741 29.4644 15.8288 29.4644 15.6773V13.944C29.4644 13.7925 29.4042 13.6472 29.297 13.54C29.1899 13.4329 29.0446 13.3727 28.8931 13.3727Z" fill="#FBBF24"/>
<path d="M18.4956 16.2485H21.5044V29.4644H18.4956V16.2485Z" fill="#FCD34D"/>
<path d="M18.4956 28.3093H21.5044V29.4644H18.4956V28.3093ZM18.4956 13.3727V17.6947L19.1585 16.6993C19.2508 16.5606 19.3759 16.447 19.5227 16.3683C19.6696 16.2897 19.8335 16.2486 20.0001 16.2485C20.1666 16.2486 20.3306 16.2897 20.4774 16.3683C20.6243 16.447 20.7494 16.5607 20.8417 16.6993L21.5044 17.6946V13.3727H18.4956Z" fill="#FBBF24"/>
<path d="M18.4956 17.6686L17.6234 19.0045C17.6054 19.0314 17.5809 19.0534 17.5521 19.0682C17.5233 19.083 17.4912 19.0902 17.4589 19.0892C17.4265 19.0882 17.395 19.0789 17.3672 19.0623C17.3394 19.0457 17.3163 19.0222 17.3001 18.9942L16.8541 18.2237C16.8394 18.1985 16.8191 18.177 16.7948 18.1608C16.7705 18.1446 16.7429 18.1342 16.7139 18.1304L15.8311 18.0162C15.799 18.012 15.7684 17.9998 15.7424 17.9805C15.7163 17.9613 15.6956 17.9357 15.6822 17.9063C15.6687 17.8768 15.6631 17.8444 15.6657 17.8121C15.6683 17.7798 15.6791 17.7487 15.697 17.7218L16.6782 16.2479L18.4963 17.1224L18.4956 17.6686Z" fill="#2BA84A"/>
<path d="M20.3683 14.3111L20.3416 14.3515L20 14.8641L19.947 14.9437L17.6234 18.4331C17.6054 18.4601 17.5809 18.482 17.5521 18.4968C17.5233 18.5116 17.4912 18.5189 17.4589 18.5178C17.4265 18.5168 17.395 18.5075 17.3672 18.4909C17.3394 18.4743 17.3163 18.4509 17.3001 18.4229L16.8541 17.6524C16.8394 17.6272 16.8191 17.6056 16.7948 17.5894C16.7705 17.5733 16.7429 17.5629 16.7139 17.5591L15.8311 17.4448C15.799 17.4407 15.7684 17.4284 15.7424 17.4092C15.7163 17.39 15.6956 17.3644 15.6822 17.3349C15.6687 17.3054 15.6631 17.273 15.6657 17.2407C15.6683 17.2084 15.6791 17.1774 15.697 17.1504L17.0281 15.1509L18.4415 13.0284C18.4695 12.9863 18.5131 12.9571 18.5627 12.9472C18.6123 12.9373 18.6637 12.9474 18.7058 12.9754L18.8003 13.0383L19.287 13.3624L20 13.8369L20.3153 14.0468C20.3572 14.0749 20.3863 14.1185 20.3962 14.168C20.4062 14.2176 20.3961 14.269 20.3683 14.3111Z" fill="#61E482"/>
<path d="M24.1689 18.0161L23.2861 18.1304C23.2571 18.1342 23.2294 18.1446 23.2051 18.1607C23.1808 18.1769 23.1606 18.1984 23.1459 18.2237L22.6999 18.9941C22.6837 19.0222 22.6606 19.0456 22.6328 19.0622C22.605 19.0788 22.5735 19.0881 22.5411 19.0891C22.5087 19.0901 22.4766 19.0829 22.4479 19.0681C22.4191 19.0533 22.3945 19.0314 22.3766 19.0044L21.5044 17.6946V16.8366L20.9331 16.2485H23.3222L24.3029 17.7217C24.3209 17.7486 24.3317 17.7797 24.3343 17.812C24.3369 17.8443 24.3312 17.8767 24.3178 17.9062C24.3044 17.9357 24.2837 17.9612 24.2576 17.9805C24.2315 17.9997 24.201 18.012 24.1689 18.0161Z" fill="#2BA84A"/>
<path d="M21.5044 16.2485H21.1129L21.5044 16.8366V16.2485Z" fill="#FBBF24"/>
<path d="M24.1689 17.4448L23.286 17.5591C23.2571 17.5629 23.2294 17.5733 23.2051 17.5894C23.1808 17.6056 23.1605 17.6272 23.1459 17.6524L22.6999 18.4229C22.6837 18.4509 22.6606 18.4743 22.6328 18.4909C22.605 18.5075 22.5734 18.5168 22.5411 18.5178C22.5087 18.5189 22.4766 18.5116 22.4478 18.4968C22.419 18.482 22.3945 18.4601 22.3765 18.4331L20.0529 14.9437L20 14.8641L19.6583 14.3515L19.6317 14.3111C19.6038 14.269 19.5938 14.2176 19.6037 14.168C19.6136 14.1185 19.6427 14.0749 19.6846 14.0468L20 13.8369L20.7129 13.3624L21.1997 13.0383L21.2941 12.9754C21.3362 12.9474 21.3877 12.9373 21.4372 12.9472C21.4868 12.9571 21.5304 12.9863 21.5584 13.0284L22.9718 15.1509L24.3029 17.1504C24.3209 17.1774 24.3317 17.2084 24.3343 17.2407C24.3369 17.273 24.3312 17.3054 24.3178 17.3349C24.3044 17.3644 24.2836 17.39 24.2576 17.4092C24.2315 17.4284 24.201 17.4407 24.1689 17.4448Z" fill="#61E482"/>
<path d="M19.0883 12.1277C18.9019 12.3446 18.7997 12.6213 18.8003 12.9073V13.0383L18.7059 12.9755C18.6638 12.9475 18.6123 12.9373 18.5628 12.9472C18.5132 12.9571 18.4696 12.9863 18.4416 13.0284L17.0282 15.1509L15.8136 15.5204C15.7283 15.5463 15.638 15.5519 15.5501 15.5367C15.4622 15.5214 15.3791 15.4858 15.3074 15.4327C15.2357 15.3796 15.1775 15.3104 15.1373 15.2307C15.0972 15.151 15.0763 15.0631 15.0763 14.9738V11.6786C15.0763 11.5894 15.0972 11.5014 15.1373 11.4217C15.1775 11.3421 15.2357 11.2729 15.3074 11.2197C15.3791 11.1666 15.4622 11.131 15.5501 11.1158C15.638 11.1006 15.7283 11.1062 15.8136 11.1321L19.0883 12.1277Z" fill="#FBBF24"/>
<path d="M20.713 12.6217V14.0308L20.3847 14.1306L20 14.2475L19.6584 14.3515L19.0883 14.5248L17.0282 15.1509L18.4416 13.0284C18.4696 12.9864 18.5132 12.9572 18.5628 12.9472C18.6123 12.9373 18.6638 12.9475 18.7059 12.9755L18.8003 13.0383V12.9073C18.7997 12.6213 18.9019 12.3446 19.0883 12.1277L20 12.405L20.713 12.6217Z" fill="#19BD42"/>
<path d="M23.1167 15.3686L20.3404 14.5248L19.7703 14.3515L19.4287 14.2475L19.044 14.1306L18.7157 14.0308V12.6217L19.4287 12.405L20.3404 12.1277C20.5268 12.3446 20.629 12.6213 20.6284 12.9073V13.0383L20.7228 12.9755C20.8104 12.9172 21.5002 12.9408 21.5584 13.0284L23.1167 15.3686Z" fill="#19BD42"/>
<path d="M21.1997 12.9072V13.7451C21.1997 14.0541 21.0804 14.3512 20.8668 14.5744C20.6532 14.7977 20.3616 14.93 20.0529 14.9437H19.9471C19.6384 14.93 19.3468 14.7977 19.1332 14.5744C18.9196 14.3512 18.8003 14.0541 18.8003 13.7451V12.9072C18.8003 12.6699 18.8707 12.4379 19.0026 12.2406C19.1344 12.0434 19.3218 11.8896 19.5411 11.7988C19.7603 11.708 20.0015 11.6843 20.2343 11.7306C20.467 11.7769 20.6808 11.8912 20.8486 12.059C20.8706 12.0811 20.8916 12.104 20.9118 12.1276C21.0981 12.3445 21.2003 12.6212 21.1997 12.9072Z" fill="#19BD42"/>
<path d="M19.0859 13.9543L15.8136 14.9493C15.7282 14.9752 15.638 14.9808 15.55 14.9656C15.4621 14.9504 15.379 14.9148 15.3073 14.8616C15.2356 14.8085 15.1773 14.7393 15.1372 14.6596C15.0971 14.5799 15.0762 14.4919 15.0762 14.4027V11.1074C15.0762 11.0182 15.0971 10.9302 15.1372 10.8505C15.1773 10.7708 15.2356 10.7016 15.3073 10.6485C15.379 10.5953 15.4621 10.5597 15.55 10.5445C15.638 10.5293 15.7282 10.5349 15.8136 10.5608L19.0869 11.5561L20.7128 12.0504" fill="#61E482"/>
<path d="M19.2871 13.4596L24.1864 14.9493C24.2718 14.9752 24.362 14.9808 24.45 14.9656C24.5379 14.9504 24.621 14.9148 24.6927 14.8616C24.7644 14.8085 24.8227 14.7393 24.8628 14.6596C24.9029 14.5799 24.9238 14.4919 24.9238 14.4027V11.1074C24.9238 11.0182 24.9029 10.9302 24.8628 10.8505C24.8227 10.7708 24.7644 10.7016 24.6927 10.6485C24.621 10.5953 24.5379 10.5597 24.45 10.5445C24.3621 10.5293 24.2718 10.5349 24.1864 10.5608L19.2871 12.0504V13.4596Z" fill="#61E482"/>
<path d="M22.7137 13.0406H21.1997C21.1239 13.0406 21.0512 13.0106 20.9977 12.957C20.9441 12.9034 20.914 12.8308 20.914 12.755C20.914 12.6792 20.9441 12.6066 20.9977 12.553C21.0512 12.4995 21.1239 12.4694 21.1997 12.4694H22.7137C22.7894 12.4694 22.8621 12.4995 22.9156 12.553C22.9692 12.6066 22.9993 12.6792 22.9993 12.755C22.9993 12.8308 22.9692 12.9034 22.9156 12.957C22.8621 13.0106 22.7894 13.0406 22.7137 13.0406ZM18.8002 13.0406H17.2863C17.2105 13.0406 17.1378 13.0106 17.0843 12.957C17.0307 12.9034 17.0006 12.8308 17.0006 12.755C17.0006 12.6792 17.0307 12.6066 17.0843 12.553C17.1378 12.4995 17.2105 12.4694 17.2863 12.4694H18.8002C18.876 12.4694 18.9487 12.4995 19.0022 12.553C19.0558 12.6066 19.0859 12.6792 19.0859 12.755C19.0859 12.8308 19.0558 12.9034 19.0022 12.957C18.9487 13.0106 18.876 13.0406 18.8002 13.0406Z" fill="#19BD42"/>
<path d="M21.1997 12.3361C21.1997 11.6735 20.6626 11.1364 20 11.1364C19.3374 11.1364 18.8003 11.6735 18.8003 12.3361V13.174C18.8003 13.8365 19.3374 14.3737 20 14.3737C20.6626 14.3737 21.1997 13.8365 21.1997 13.174V12.3361Z" fill="#34DC5E"/>
<path d="M20.5133 11.2515C20.5893 11.4119 20.6287 11.5872 20.6285 11.7647V12.6026C20.6285 12.9207 20.5021 13.2259 20.2771 13.4509C20.0521 13.6759 19.747 13.8023 19.4288 13.8023C19.2513 13.8025 19.0759 13.7631 18.9155 13.6871C19.0127 13.8925 19.1663 14.066 19.3583 14.1876C19.5503 14.3091 19.7728 14.3736 20.0001 14.3736C20.3182 14.3736 20.6234 14.2472 20.8484 14.0222C21.0734 13.7972 21.1998 13.492 21.1998 13.1739V12.336C21.1998 12.1087 21.1353 11.8862 21.0138 11.6942C20.8922 11.5022 20.7187 11.3487 20.5133 11.2515Z" fill="#2BA84A"/>
<path d="M28.8929 13.087H25.2093V11.1073C25.2093 10.9734 25.178 10.8414 25.1178 10.7219C25.0576 10.6023 24.9702 10.4985 24.8627 10.4188C24.7551 10.3391 24.6304 10.2857 24.4985 10.2629C24.3666 10.2401 24.2312 10.2485 24.1031 10.2874L20.9935 11.2329C20.721 10.9868 20.367 10.8506 19.9999 10.8506C19.6328 10.8506 19.2787 10.9868 19.0063 11.2329L15.8966 10.2875C15.7685 10.2485 15.6331 10.2401 15.5012 10.263C15.3693 10.2858 15.2446 10.3392 15.1371 10.4189C15.0295 10.4986 14.9422 10.6024 14.882 10.7219C14.8218 10.8415 14.7904 10.9735 14.7904 11.1073V13.087H11.1068C10.8796 13.0873 10.6618 13.1777 10.5012 13.3383C10.3405 13.499 10.2501 13.7168 10.2499 13.944V15.6773C10.2502 15.8846 10.3255 16.0849 10.4621 16.241C10.5986 16.3971 10.7871 16.4985 10.9926 16.5264V28.3218C10.993 28.7005 11.1436 29.0635 11.4113 29.3312C11.6791 29.599 12.0421 29.7496 12.4208 29.75H27.579C27.9576 29.7496 28.3207 29.599 28.5884 29.3312C28.8562 29.0635 29.0068 28.7005 29.0072 28.3218V16.5263C29.2127 16.4984 29.4011 16.3971 29.5377 16.241C29.6742 16.0849 29.7496 15.8846 29.7499 15.6772V13.9439C29.7496 13.7167 29.6592 13.4989 29.4986 13.3383C29.3379 13.1776 29.1201 13.0873 28.8929 13.087ZM21.4212 14.407C21.4571 14.4179 21.4948 14.4217 21.5321 14.418C21.5694 14.4144 21.6057 14.4034 21.6388 14.3857C21.6719 14.3681 21.7012 14.3441 21.725 14.3151C21.7488 14.2861 21.7667 14.2527 21.7776 14.2168C21.7885 14.1809 21.7922 14.1432 21.7886 14.1059C21.7849 14.0686 21.774 14.0323 21.7563 13.9992C21.7386 13.9661 21.7146 13.9368 21.6856 13.913C21.6567 13.8892 21.6233 13.8713 21.5874 13.8604L21.3515 13.7887C21.4397 13.5958 21.4853 13.3861 21.4852 13.1739V13.0406H22.7136C22.7893 13.0406 22.862 13.0105 22.9156 12.9569C22.9691 12.9033 22.9992 12.8307 22.9992 12.7549C22.9992 12.6792 22.9691 12.6065 22.9156 12.553C22.862 12.4994 22.7893 12.4693 22.7136 12.4693H21.4852V12.336C21.4854 12.1238 21.4397 11.9141 21.3515 11.7212L24.2694 10.834C24.312 10.821 24.3572 10.8182 24.4011 10.8258C24.4451 10.8334 24.4867 10.8512 24.5225 10.8778C24.5584 10.9044 24.5875 10.939 24.6075 10.9788C24.6276 11.0187 24.6381 11.0627 24.6381 11.1073V13.3268C24.6327 13.3571 24.6327 13.3882 24.6381 13.4185V14.4026C24.6381 14.4472 24.6276 14.4912 24.6075 14.531C24.5875 14.5709 24.5584 14.6055 24.5225 14.6321C24.4867 14.6586 24.4451 14.6764 24.4011 14.684C24.3572 14.6916 24.312 14.6888 24.2694 14.6759L22.578 14.1616C22.5688 14.1588 22.5595 14.1565 22.5501 14.1547C22.5473 14.1541 22.5446 14.1539 22.5418 14.1534C22.5354 14.1522 22.529 14.1513 22.5225 14.1506C22.5186 14.1502 22.5147 14.1502 22.5108 14.15C22.5054 14.1496 22.5 14.1493 22.4945 14.1493C22.4907 14.1493 22.487 14.1496 22.4833 14.1497C22.4777 14.1499 22.4721 14.1501 22.4665 14.1507C22.4633 14.151 22.4601 14.1516 22.4569 14.152C22.4508 14.1528 22.4447 14.1536 22.4387 14.1548C22.4362 14.1553 22.4337 14.1561 22.4311 14.1566C22.4246 14.1581 22.4181 14.1597 22.4116 14.1616C22.4095 14.1623 22.4075 14.1632 22.4054 14.1638C22.3987 14.1659 22.3921 14.1683 22.3856 14.171C22.3831 14.172 22.3809 14.1733 22.3785 14.1743C22.3725 14.1769 22.3665 14.1796 22.3606 14.1827C22.3524 14.1871 22.3444 14.1919 22.3366 14.197L22.3366 14.1971C22.3358 14.1976 22.3351 14.1982 22.3343 14.1988C22.3272 14.2035 22.3204 14.2086 22.3138 14.214C22.3112 14.2161 22.3089 14.2184 22.3064 14.2206C22.3019 14.2246 22.2973 14.2286 22.293 14.2328C22.29 14.2357 22.2874 14.2388 22.2847 14.2418C22.2811 14.2457 22.2775 14.2495 22.2742 14.2535C22.2714 14.2569 22.2688 14.2606 22.2662 14.2642C22.2632 14.2681 22.2602 14.2719 22.2575 14.276C22.2548 14.2799 22.2525 14.2841 22.2501 14.2882C22.2477 14.292 22.2453 14.2959 22.2431 14.2999C22.2405 14.3048 22.2382 14.31 22.2359 14.315C22.2343 14.3185 22.2326 14.3217 22.2311 14.3252C22.2279 14.3329 22.2251 14.3408 22.2226 14.3487C22.2223 14.3498 22.2219 14.3507 22.2215 14.3518L22.2215 14.3519C22.2188 14.3609 22.2165 14.37 22.2147 14.3791C22.2137 14.3844 22.2131 14.3896 22.2123 14.3948C22.2118 14.3988 22.211 14.4026 22.2106 14.4066C22.21 14.4125 22.2099 14.4183 22.2097 14.4241C22.2095 14.4276 22.2092 14.431 22.2092 14.4344C22.2092 14.4399 22.2096 14.4454 22.2099 14.4509C22.2101 14.4547 22.2102 14.4586 22.2105 14.4624C22.211 14.4672 22.2118 14.472 22.2126 14.4768C22.2132 14.4813 22.2137 14.4858 22.2147 14.4903C22.2154 14.4944 22.2166 14.4984 22.2176 14.5024C22.2188 14.5074 22.2199 14.5125 22.2214 14.5175C22.2225 14.5211 22.2239 14.5246 22.2252 14.5282C22.227 14.5334 22.2287 14.5386 22.2308 14.5437C22.2324 14.5478 22.2345 14.5516 22.2363 14.5555C22.2384 14.56 22.2403 14.5645 22.2426 14.5689C22.247 14.5772 22.2518 14.5852 22.257 14.5931L22.2571 14.5932L23.4599 16.3997C23.463 16.4047 23.4663 16.4096 23.4697 16.4143L23.9802 17.1811L23.1561 17.2879C23.1126 17.2936 23.071 17.3091 23.0345 17.3334C22.998 17.3577 22.9676 17.3901 22.9456 17.4281L22.5292 18.1473L21.7418 16.9648L21.7406 16.9629L20.3431 14.8641L20.5499 14.5534C20.7129 14.4881 20.863 14.3945 20.9934 14.2769L21.4212 14.407ZM19.0858 12.336C19.0858 12.0936 19.1821 11.8611 19.3535 11.6896C19.525 11.5182 19.7575 11.4219 19.9999 11.4219C20.2423 11.4219 20.4748 11.5182 20.6462 11.6896C20.8176 11.8611 20.9139 12.0936 20.9139 12.336V13.1739C20.9137 13.3599 20.8568 13.5415 20.7508 13.6944C20.6448 13.8472 20.4948 13.9642 20.3206 14.0297C20.2931 14.0343 20.2664 14.043 20.2414 14.0553C20.1058 14.0926 19.9634 14.098 19.8253 14.0712C19.6872 14.0444 19.5572 13.9861 19.4454 13.9008C19.3335 13.8155 19.2429 13.7055 19.1805 13.5794C19.1182 13.4533 19.0858 13.3146 19.0858 13.1739V12.336ZM15.3617 11.1073C15.3617 11.0627 15.3721 11.0187 15.3922 10.9788C15.4123 10.939 15.4414 10.9044 15.4772 10.8778C15.5131 10.8512 15.5547 10.8334 15.5986 10.8258C15.6426 10.8182 15.6877 10.821 15.7304 10.834L18.6482 11.7212C18.56 11.9141 18.5145 12.1238 18.5146 12.336V12.4693H17.2862C17.2105 12.4693 17.1378 12.4994 17.0842 12.553C17.0307 12.6065 17.0006 12.6792 17.0006 12.7549C17.0006 12.8307 17.0307 12.9033 17.0842 12.9569C17.1378 13.0105 17.2105 13.0406 17.2862 13.0406H18.5146V13.1739C18.5144 13.3861 18.5601 13.5958 18.6483 13.7887L17.4224 14.1614L17.422 14.1616L15.7304 14.6759C15.6878 14.6888 15.6426 14.6916 15.5987 14.684C15.5547 14.6764 15.5131 14.6586 15.4773 14.6321C15.4414 14.6055 15.4123 14.5709 15.3923 14.531C15.3722 14.4912 15.3617 14.4472 15.3617 14.4026L15.3617 11.1073ZM11.1068 15.9629C11.0311 15.9628 10.9585 15.9327 10.9049 15.8791C10.8514 15.8256 10.8212 15.753 10.8212 15.6772V13.9439C10.8212 13.8682 10.8514 13.7956 10.9049 13.742C10.9585 13.6885 11.0311 13.6584 11.1068 13.6583H14.7904V14.4026C14.7906 14.6294 14.8805 14.847 15.0406 15.0077C15.2007 15.1684 15.4179 15.2592 15.6448 15.2602C15.7301 15.2601 15.815 15.2474 15.8966 15.2225L16.8254 14.9401L16.1444 15.9629H11.1068ZM18.2098 29.1787H12.4208C12.1936 29.1784 11.9758 29.0881 11.8151 28.9274C11.6545 28.7668 11.5641 28.549 11.5638 28.3218V16.5342H15.764L15.2893 17.247C15.2624 17.2874 15.2462 17.3341 15.2423 17.3825C15.2385 17.4309 15.247 17.4795 15.2671 17.5237C15.2872 17.5679 15.3183 17.6062 15.3574 17.6351C15.3964 17.6639 15.4422 17.6824 15.4904 17.6886L16.6304 17.8364L17.2064 18.8312C17.2308 18.8733 17.2654 18.9084 17.3071 18.9333C17.3488 18.9582 17.3961 18.9721 17.4447 18.9736C17.4477 18.9737 17.4506 18.9738 17.4537 18.9738C17.5007 18.9737 17.547 18.9621 17.5885 18.9399C17.63 18.9177 17.6653 18.8856 17.6914 18.8464L18.2105 18.0668L18.2098 29.1787ZM18.2586 16.9638L17.4706 18.1473L17.0542 17.4281C17.0322 17.3901 17.0018 17.3577 16.9653 17.3334C16.9288 17.3091 16.8872 17.2936 16.8437 17.2879L16.0195 17.1811L16.5337 16.4089L16.5347 16.4073L17.6859 14.6784L19.0064 14.2769C19.2282 14.4774 19.5056 14.606 19.802 14.6458L19.7823 14.6755C19.7668 14.6934 19.7536 14.7132 19.743 14.7345L18.26 16.9618L18.2586 16.9638ZM28.4359 28.3218C28.4357 28.549 28.3453 28.7668 28.1846 28.9274C28.024 29.0881 27.8062 29.1784 27.579 29.1787H21.7899V27.1198C21.7899 27.044 21.7598 26.9714 21.7063 26.9178C21.6527 26.8642 21.58 26.8341 21.5043 26.8341C21.4285 26.8341 21.3559 26.8642 21.3023 26.9178C21.2487 26.9714 21.2186 27.044 21.2186 27.1198V29.1787H18.7811L18.7819 17.2087L19.9998 15.3795L21.2186 17.2098V25.9772C21.2186 26.0529 21.2487 26.1256 21.3023 26.1792C21.3559 26.2327 21.4285 26.2628 21.5043 26.2628C21.58 26.2628 21.6527 26.2327 21.7063 26.1792C21.7598 26.1256 21.7899 26.0529 21.7899 25.9772V18.0678L22.3083 18.8464C22.3344 18.8856 22.3698 18.9177 22.4113 18.9399C22.4527 18.9621 22.4991 18.9738 22.5461 18.9738C22.5491 18.9738 22.5521 18.9737 22.5551 18.9736C22.6036 18.9721 22.651 18.9582 22.6927 18.9333C22.7344 18.9084 22.769 18.8733 22.7933 18.8312L23.3693 17.8364L24.5094 17.6886C24.5575 17.6824 24.6033 17.6639 24.6424 17.6351C24.6814 17.6062 24.7125 17.5679 24.7326 17.5237C24.7528 17.4795 24.7613 17.4309 24.7574 17.3825C24.7535 17.3341 24.7374 17.2874 24.7105 17.247L24.2358 16.5342H28.4359V28.3218ZM29.1786 15.6772C29.1785 15.753 29.1484 15.8256 29.0948 15.8791C29.0413 15.9327 28.9687 15.9628 28.8929 15.9629H23.8554L23.1744 14.9401L24.1031 15.2225C24.1848 15.2474 24.2696 15.2601 24.355 15.2602C24.5818 15.2592 24.799 15.1684 24.9591 15.0077C25.1192 14.847 25.2092 14.6294 25.2093 14.4026V13.6583H28.8929C28.9687 13.6584 29.0413 13.6885 29.0948 13.742C29.1484 13.7956 29.1785 13.8682 29.1786 13.9439V15.6772Z" fill="#191D23"/>
</g>
<defs>
<clipPath id="clip0_40_304">
<rect width="19.5" height="19.5" fill="white" transform="translate(10.25 10.25)"/>
</clipPath>
</defs>
</svg>
