<svg width="98" height="48" viewBox="0 0 98 48" fill="none" xmlns="http://www.w3.org/2000/svg">
<g clip-path="url(#clip0_35_1630)">
<path d="M13.5461 26.4498H18.9532C20.0592 26.4908 20.7351 26.7775 20.9809 27.31C21.1857 27.6992 21.2881 28.2727 21.2881 29.0305V35.7894C21.2881 36.4448 21.0013 37.0695 20.4279 37.6634C18.7074 39.4453 16.1268 40.3363 12.6859 40.3363C9.63412 40.3363 6.98177 39.1893 4.7288 36.8954C2.47584 34.581 1.34935 31.7955 1.34935 28.5389C1.34935 25.2824 2.49632 22.5686 4.79025 20.3975C7.08417 18.206 9.78773 17.1103 12.9009 17.1103C15.3177 17.1103 17.6014 17.909 19.752 19.5066C20.305 19.9162 20.5815 20.3771 20.5815 20.8891C20.5815 21.3807 20.3459 21.9541 19.8749 22.6095C19.0761 23.6951 18.349 24.2378 17.6936 24.2378C17.3044 24.2378 16.6798 23.9613 15.8195 23.4083C14.9593 22.8348 13.9352 22.5481 12.7473 22.5481C11.1907 22.5481 9.80821 23.1011 8.5998 24.2071C7.3914 25.2926 6.78719 26.7263 6.78719 28.5082C6.78719 30.2696 7.40164 31.775 8.63053 33.0244C9.85942 34.2533 11.2522 34.8677 12.8088 34.8677C13.9352 34.8677 14.9491 34.6834 15.8503 34.3147V30.966H13.4232C12.7883 30.966 12.3377 30.8841 12.0714 30.7202C11.8052 30.5564 11.6311 30.3208 11.5491 30.0136C11.4672 29.6859 11.4263 29.2558 11.4263 28.7233C11.4263 28.1703 11.4672 27.7299 11.5491 27.4022C11.6515 27.0745 11.8256 26.8492 12.0714 26.7263C12.4401 26.542 12.9316 26.4498 13.5461 26.4498ZM23.7418 20.2132C23.7418 19.7421 23.752 19.3939 23.7725 19.1687C23.8135 18.9229 23.9159 18.6464 24.0797 18.3392C24.3665 17.7861 25.1653 17.5096 26.4761 17.5096C27.9098 17.5096 28.7598 17.8886 29.026 18.6464C29.1284 18.9946 29.1796 19.5271 29.1796 20.2439V37.3255C29.1796 37.8171 29.1591 38.1755 29.1182 38.4008C29.0977 38.6261 29.0055 38.8923 28.8417 39.1996C28.5549 39.7526 27.7562 40.0291 26.4453 40.0291C25.0116 40.0291 24.1719 39.6399 23.9261 38.8616C23.8032 38.5339 23.7418 38.0116 23.7418 37.2948V20.2132ZM52.1855 17.8476C53.394 18.4416 53.9982 19.097 53.9982 19.8138C53.9982 20.1415 53.8445 20.6331 53.5373 21.2885L45.058 38.4929C44.8327 38.9435 44.4845 39.3122 44.0134 39.5989C43.5628 39.8652 43.0918 39.9983 42.6002 39.9983H42.293C41.7809 39.9983 41.2894 39.8652 40.8183 39.5989C40.3677 39.3122 40.0298 38.9435 39.8045 38.4929L31.3251 21.2885C31.0179 20.6331 30.8643 20.1415 30.8643 19.8138C30.8643 19.097 31.4685 18.4416 32.6769 17.8476C33.3528 17.4994 33.8648 17.3253 34.213 17.3253C34.5817 17.3253 34.8582 17.3663 35.0425 17.4482C35.2269 17.5301 35.401 17.6735 35.5648 17.8783C35.7491 18.1241 35.913 18.4006 36.0564 18.7078C36.2202 18.9946 36.6196 19.8445 37.2545 21.2578C37.8895 22.6505 38.5653 24.1354 39.2822 25.7125C40.0195 27.2896 40.7057 28.7847 41.3406 30.1979C41.996 31.5907 42.3647 32.369 42.4466 32.5328L48.591 19.0765C48.7549 18.6873 48.8983 18.3801 49.0212 18.1548C49.3898 17.6018 49.8404 17.3253 50.3729 17.3253C50.9054 17.3253 51.5097 17.4994 52.1855 17.8476ZM76.2473 17.8476C77.4557 18.4416 78.0599 19.097 78.0599 19.8138C78.0599 20.1415 77.9063 20.6331 77.5991 21.2885L69.1197 38.4929C68.8944 38.9435 68.5463 39.3122 68.0752 39.5989C67.6246 39.8652 67.1535 39.9983 66.662 39.9983H66.3547C65.8427 39.9983 65.3511 39.8652 64.8801 39.5989C64.4295 39.3122 64.0915 38.9435 63.8662 38.4929L55.3869 21.2885C55.0797 20.6331 54.9261 20.1415 54.9261 19.8138C54.9261 19.097 55.5303 18.4416 56.7387 17.8476C57.4146 17.4994 57.9266 17.3253 58.2748 17.3253C58.6435 17.3253 58.92 17.3663 59.1043 17.4482C59.2886 17.5301 59.4627 17.6735 59.6266 17.8783C59.8109 18.1241 59.9747 18.4006 60.1181 18.7078C60.282 18.9946 60.6814 19.8445 61.3163 21.2578C61.9512 22.6505 62.6271 24.1354 63.344 25.7125C64.0813 27.2896 64.7674 28.7847 65.4023 30.1979C66.0578 31.5907 66.4264 32.369 66.5083 32.5328L72.6528 19.0765C72.8166 18.6873 72.96 18.3801 73.0829 18.1548C73.4516 17.6018 73.9022 17.3253 74.4347 17.3253C74.9672 17.3253 75.5714 17.4994 76.2473 17.8476ZM88.131 19.1072L96.4261 36.2502C96.7742 36.9466 96.9483 37.4689 96.9483 37.8171C96.9483 38.5544 96.3544 39.22 95.1664 39.814C94.4701 40.1622 93.9171 40.3363 93.5074 40.3363C93.1183 40.3363 92.7906 40.2441 92.5243 40.0598C92.2785 39.8754 92.0942 39.6809 91.9713 39.4761C91.8689 39.2712 91.7153 38.964 91.5105 38.5544L89.9129 35.2364H81.4029L79.8053 38.5544C79.6005 38.964 79.4367 39.261 79.3138 39.4453C79.2114 39.6297 79.027 39.8242 78.7608 40.0291C78.515 40.2134 78.1873 40.3056 77.7776 40.3056C77.3885 40.3056 76.8457 40.1315 76.1494 39.7833C74.9614 39.2098 74.3675 38.5544 74.3675 37.8171C74.3675 37.4689 74.5416 36.9466 74.8898 36.2502L83.1848 19.0765C83.4101 18.6054 83.748 18.2265 84.1986 17.9398C84.6697 17.653 85.1612 17.5096 85.6733 17.5096C86.7793 17.5096 87.5985 18.0422 88.131 19.1072ZM85.6425 26.4805L83.6149 30.6895H87.7009L85.6425 26.4805Z" fill="#349041"/>
<path d="M76.3925 9.07617H32.1324C31.003 9.07617 30.0875 9.99169 30.0875 11.121V12.1044C30.0875 13.2338 31.003 14.1493 32.1324 14.1493H76.3925C77.5219 14.1493 78.4374 13.2338 78.4374 12.1044V11.121C78.4374 9.99169 77.5219 9.07617 76.3925 9.07617Z" fill="#349041"/>
<path d="M56.7401 8.98142L48.1041 0.345419C47.6438 -0.114886 46.8975 -0.114886 46.4372 0.345419L44.1482 2.63442C43.6879 3.09473 43.6879 3.84103 44.1482 4.30133L52.7842 12.9373C53.2445 13.3976 53.9908 13.3976 54.4511 12.9373L56.7401 10.6483C57.2004 10.188 57.2004 9.44172 56.7401 8.98142Z" fill="#349041"/>
<path d="M55.7416 12.9361L64.3776 4.30013C64.8379 3.83983 64.8379 3.09352 64.3776 2.63322L62.0886 0.344216C61.6283 -0.116089 60.882 -0.116089 60.4217 0.344216L51.7857 8.98022C51.3254 9.44052 51.3254 10.1868 51.7857 10.6471L54.0747 12.9361C54.535 13.3964 55.2813 13.3964 55.7416 12.9361Z" fill="#349041"/>
</g>
<defs>
<clipPath id="clip0_35_1630">
<rect width="96.8373" height="48" fill="white" transform="translate(0.581299)"/>
</clipPath>
</defs>
</svg>
