<svg width="40" height="40" viewBox="0 0 40 40" fill="none" xmlns="http://www.w3.org/2000/svg">
<rect x="0.543981" y="0.543981" width="38.912" height="38.912" rx="19.456" stroke="#BBF3C9" stroke-width="1.08796"/>
<path d="M12.125 15.875H8.75V25.625H12.125V15.875Z" fill="#2BA84A"/>
<path d="M28.625 12.5H17.375V22.25H28.625V12.5Z" fill="#11822D"/>
<path d="M20.57 21.38L21.9838 22.0663C23.1575 22.52 24.4588 22.4638 25.5988 21.9163L29.2063 20.18C29.3638 20.1013 29.5325 20.0675 29.705 20.0675C30.05 20.0675 30.3913 20.225 30.62 20.5175C31.0775 21.1025 30.9013 21.9725 30.2488 22.3213L27.605 23.7388C26.0675 24.5638 24.5375 25.0063 22.82 25.22C21.0538 25.4413 19.2688 25.3625 17.5138 25.0588L17.3075 25.0213C16.2238 24.8338 15.59 24.6088 15.08 24.3088C14.5625 24.0088 14.1688 23.6338 13.5725 23.1463L12.26 23.0413L12.125 23V18.125L12.26 18.1663L13.3513 18.0388L16.04 17.7688C16.7113 17.7013 17.39 17.825 17.9938 18.1325L20.6938 19.4938C21.1663 19.7338 21.38 20.2963 21.185 20.7913C20.9675 21.335 20.3488 21.5863 19.82 21.3463L16.7 19.9175" fill="#FAD6A5"/>
<path d="M21.875 12.5V16.625H24.125V12.5" fill="#34DC5E"/>
<path d="M10.25 18.5C10.6642 18.5 11 18.1642 11 17.75C11 17.3358 10.6642 17 10.25 17C9.83579 17 9.5 17.3358 9.5 17.75C9.5 18.1642 9.83579 18.5 10.25 18.5Z" fill="#34DC5E"/>
<path d="M12.5 25.625V23.405L13.2912 23.4688C13.4075 23.5625 13.5125 23.6525 13.6137 23.7388C14.0037 24.065 14.3412 24.35 14.7537 24.59C15.3462 24.9388 16.0512 25.1675 17.105 25.3475L17.315 25.385C18.4437 25.58 19.55 25.6775 20.63 25.6775C21.3462 25.6775 22.0475 25.6362 22.73 25.55C24.575 25.3212 26.1387 24.8375 27.65 24.0275L30.2937 22.61C30.6987 22.3925 30.9875 22.0063 31.085 21.5487C31.1825 21.0875 31.0737 20.6113 30.785 20.2438C30.4962 19.8725 30.0425 19.6475 29.5737 19.6475C29.3712 19.6475 29.18 19.6925 29.0037 19.7638V12.5C29.0037 12.2937 28.835 12.125 28.6287 12.125H17.375C17.1687 12.125 17 12.2937 17 12.5V17.405C16.6287 17.3337 16.25 17.315 15.8675 17.3525L13.1712 17.6263L12.4962 17.705V15.875C12.4962 15.6688 12.3275 15.5 12.1212 15.5H8.75V16.25H11.75V25.25H8.75V26H12.125C12.3312 26 12.5 25.8313 12.5 25.625ZM22.25 12.875H23.75V16.25H22.25V12.875ZM17.75 12.875H21.5V16.625C21.5 16.8313 21.6687 17 21.875 17H24.125C24.3312 17 24.5 16.8313 24.5 16.625V12.875H28.25V20.1163L27.125 20.6562V20.3713H23C22.7937 20.3713 22.625 20.54 22.625 20.7463C22.625 20.9525 22.7937 21.1213 23 21.1213H26.1575L25.3025 21.5338C24.245 22.04 23.0675 22.0887 22.0025 21.68L21.1437 21.2975C21.3912 21.02 21.5487 20.6638 21.47 20.1763C21.3912 19.6888 21.065 19.28 20.6262 19.055L18.0312 17.7463C17.9412 17.7013 17.8437 17.6675 17.75 17.63V12.875ZM12.5 18.4625L15.9462 18.0988C16.3025 18.0613 16.6587 18.095 17 18.1775V18.2H17.0825C17.2925 18.2563 17.495 18.3275 17.69 18.425L20.3487 19.7638C20.6412 19.91 20.8137 20.2438 20.72 20.5588C20.66 20.7538 20.525 20.9 20.3412 20.975C20.1762 21.0425 20 21.035 19.8387 20.9637L17.06 19.6888C16.8725 19.6025 16.6475 19.6887 16.5612 19.8725C16.475 20.06 16.5612 20.285 16.745 20.3713L19.5237 21.6462C19.7075 21.7325 19.9062 21.7738 20.1012 21.7738C20.1687 21.7738 20.2362 21.7625 20.3 21.755L21.7062 22.3775C22.9662 22.865 24.3912 22.805 25.6213 22.2162L29.2325 20.4762C29.525 20.33 29.96 20.42 30.185 20.7087C30.335 20.9037 30.395 21.155 30.3425 21.3988C30.2937 21.6388 30.1437 21.8375 29.93 21.9537L27.2862 23.3713C25.8612 24.1363 24.38 24.5938 22.6287 24.8113C20.9825 25.0175 19.235 24.965 17.4387 24.6537L17.2287 24.6163C16.2687 24.4513 15.6387 24.2487 15.125 23.9487C14.7687 23.7387 14.4687 23.4875 14.09 23.1725C13.9587 23.0637 13.82 22.9475 13.67 22.82C13.61 22.7712 13.5387 22.7413 13.4637 22.7375L12.4962 22.6588V18.4662L12.5 18.4625Z" fill="#191D23"/>
<path d="M27.125 18.875H24.125C23.9179 18.875 23.75 19.0429 23.75 19.25C23.75 19.4571 23.9179 19.625 24.125 19.625H27.125C27.3321 19.625 27.5 19.4571 27.5 19.25C27.5 19.0429 27.3321 18.875 27.125 18.875Z" fill="#191D23"/>
<path d="M11.375 17.75C11.375 17.1313 10.8687 16.625 10.25 16.625C9.63125 16.625 9.125 17.1313 9.125 17.75C9.125 18.3687 9.63125 18.875 10.25 18.875C10.8687 18.875 11.375 18.3687 11.375 17.75ZM10.25 18.125C10.0437 18.125 9.875 17.9562 9.875 17.75C9.875 17.5437 10.0437 17.375 10.25 17.375C10.4562 17.375 10.625 17.5437 10.625 17.75C10.625 17.9562 10.4562 18.125 10.25 18.125Z" fill="#191D23"/>
<path d="M10.625 20C10.625 19.7929 10.4571 19.625 10.25 19.625C10.0429 19.625 9.875 19.7929 9.875 20V24.125C9.875 24.3321 10.0429 24.5 10.25 24.5C10.4571 24.5 10.625 24.3321 10.625 24.125V20Z" fill="#191D23"/>
</svg>
