<svg width="40" height="40" viewBox="0 0 40 40" fill="none" xmlns="http://www.w3.org/2000/svg">
<rect x="0.543981" y="0.543981" width="38.912" height="38.912" rx="19.456" stroke="#BBF3C9" stroke-width="1.08796"/>
<path d="M14.3551 12.2717C14.5534 12.2528 14.7601 12.2641 14.9596 12.2641L24.0846 12.2641C25.1779 12.2643 25.2281 12.3109 25.7596 13.3632L26.3152 14.4627C26.4754 14.7748 26.8501 15.3213 26.8815 15.6057C26.9838 16.5316 26.2686 17.0108 25.4163 17.1066C25.4218 17.6205 25.4117 18.1367 25.4106 18.651C25.4095 19.2528 25.3665 19.2006 25.6227 19.745C25.8939 20.321 26.1942 20.8849 26.4846 21.4516C26.8132 22.0929 26.7781 21.9759 26.7769 22.6818L26.7763 23.8803C26.7763 24.1378 26.7675 24.3982 26.7895 24.6549C29.2212 25.8019 28.8228 29.3316 26.1046 29.8528C24.5464 30.0486 23.1827 29.1405 22.8863 27.5681C22.5388 27.544 22.1825 27.5587 21.8342 27.5587L14.1791 27.5592C13.8817 27.5592 12.2883 27.592 12.1139 27.5243C11.9756 27.3369 12.0432 26.2163 12.0435 25.9516L12.0436 23.5327C12.0436 23.2875 12.004 22.2506 12.049 22.0839C12.1262 21.7975 12.3376 21.4699 12.4728 21.2C12.7985 20.5496 13.1184 19.8925 13.4675 19.2543C13.4374 18.6103 13.43 17.7477 13.4682 17.1043C13.365 17.0726 13.2557 17.0633 13.1509 17.0368C12.6422 16.9081 12.0858 16.493 12.041 15.9364C12.0017 15.4475 12.1465 15.2299 12.3793 14.8283L12.9532 13.8461C13.2912 13.2674 13.6294 12.325 14.3551 12.2717ZM15.7301 16.2641C15.1009 16.7655 14.6805 17.0676 13.8356 17.1035C13.8278 17.7677 13.8275 18.435 13.8371 19.0993C14.4514 19.1297 15.0733 19.1113 15.6886 19.1114L22.7804 19.1114C23.4687 19.1113 24.1623 19.129 24.85 19.1061L25.0352 19.1029C25.046 18.4432 25.0313 17.7827 25.046 17.1232C24.4793 17.092 23.645 16.6688 23.2175 16.2695C22.5773 16.835 22.0711 17.1568 21.1525 17.1032C20.5143 17.066 19.9236 16.7055 19.4731 16.2661C18.9846 16.6808 18.5818 17.009 17.9187 17.0873C17.2382 17.1677 16.6081 17.0027 16.0734 16.5562C15.9767 16.4755 15.8291 16.3203 15.7301 16.2641Z" fill="#191D23" stroke="#191D23" stroke-width="0.3"/>
<path d="M23.5492 16.037C23.7016 15.9372 24.0738 16.0443 24.2504 16.0687C24.6789 16.1281 25.2589 16.2039 25.6841 16.1595C25.9546 16.1312 26.2026 16.0411 26.4763 16.0409C26.2853 16.4958 25.7679 16.6871 25.3074 16.7332C24.6423 16.7999 24.0437 16.4407 23.5492 16.037ZM19.8341 16.0679C19.8893 16.0239 20.3676 16.0821 20.4604 16.0837C21.1452 16.0955 21.8183 16.0938 22.4998 16.0242C22.5986 16.0142 22.8 15.9469 22.8788 16.0314C22.0602 16.9207 20.6728 16.9635 19.8341 16.0679ZM12.4302 15.9323L12.4467 15.9178C12.5663 15.9298 12.7229 15.9902 12.86 16.0096C13.4327 16.0909 14.068 16.1447 14.6448 16.0923C14.7809 16.08 15.237 15.9957 15.3268 16.0674C14.6376 16.7407 13.387 17.0314 12.6144 16.3236C12.4903 16.2098 12.4375 16.0989 12.4302 15.9323ZM16.026 15.9849C16.1205 15.8931 16.2286 15.9762 16.3413 15.9991C16.8269 16.0978 17.6776 16.0916 18.1771 16.0779C18.4133 16.0714 19.0138 15.9547 19.1408 16.0091C18.6526 16.5627 17.9176 16.8561 17.1806 16.6982C16.8014 16.6169 16.2404 16.3162 16.026 15.9849Z" fill="#2BA84A"/>
<path d="M22.6587 12.6277C23.1281 12.6554 24.4466 12.5683 24.803 12.6825C25.1584 12.7965 25.6507 14.0324 25.8311 14.384C26.018 14.7483 26.2438 15.0915 26.4296 15.456C26.5288 15.6571 26.5272 15.829 26.4763 16.0408C26.2025 16.041 25.9545 16.1311 25.6841 16.1594C25.2588 16.2039 24.6788 16.128 24.2503 16.0687C24.0737 16.0442 23.7016 15.9371 23.5491 16.0369C23.5038 16.0058 23.4616 15.9616 23.42 15.9251C23.408 15.798 23.388 15.6713 23.3616 15.5465C23.1168 14.5758 22.8915 13.6012 22.6587 12.6277ZM12.4474 15.5004C12.5386 15.2489 12.8246 14.8207 12.9688 14.569L13.5866 13.4891C13.797 13.1296 13.9628 12.6757 14.4332 12.6417C14.945 12.6046 15.9363 12.6039 16.4395 12.6495C16.2208 13.5221 15.6405 14.7471 15.5626 15.5828L15.541 15.8514C15.4749 15.9256 15.4039 16.0048 15.3268 16.0673C15.237 15.9957 14.7808 16.0799 14.6448 16.0923C14.068 16.1446 13.4327 16.0908 12.8599 16.0096C12.7229 15.9901 12.5662 15.9298 12.4467 15.9178L12.4301 15.9322C12.4083 15.8008 12.4278 15.6322 12.4474 15.5004ZM16.8633 12.6307C17.6649 12.6595 18.4704 12.6278 19.2726 12.6365C19.2462 12.9853 19.2611 13.3431 19.2611 13.6932L19.2605 15.5009C19.2603 15.621 19.2566 15.7422 19.2628 15.8622C19.2248 15.9157 19.1887 15.9637 19.1408 16.0091C19.0138 15.9547 18.4132 16.0713 18.1771 16.0778C17.6776 16.0916 16.8269 16.0978 16.3413 15.999C16.2286 15.9761 16.1205 15.893 16.026 15.9848C15.9309 15.8524 15.9495 15.7112 15.9615 15.5579C16.0256 14.8166 16.6323 13.4068 16.8633 12.6307ZM19.6373 12.6386C20.4966 12.6276 21.4468 12.6074 22.3012 12.6509C22.3829 13.3542 22.7597 14.7716 22.9676 15.4776C22.9988 15.5986 23.0188 15.7202 23.031 15.8446C22.9875 15.91 22.9387 15.9799 22.8788 16.0314C22.8 15.9468 22.5986 16.0141 22.4998 16.0242C21.8183 16.0937 21.1452 16.0954 20.4604 16.0836C20.3675 16.082 19.8893 16.0239 19.834 16.0678C19.6621 15.947 19.6572 15.7455 19.6589 15.5569L19.6373 12.6386Z" fill="#8EECA6"/>
<path d="M25.4378 24.8225C27.5018 24.5807 28.842 27.0356 27.485 28.6532C27.0531 29.1681 26.4555 29.4353 25.7918 29.4951C24.5875 29.6694 23.3193 28.5579 23.2149 27.3543C23.1 26.0305 24.1397 24.9311 25.4378 24.8225Z" fill="#BBF3C9"/>
<path d="M26.4795 26.4789C27.1086 26.479 26.1386 27.2505 26.0579 27.3266C25.2757 28.065 25.2686 28.485 24.5143 27.5876C24.4333 27.492 24.1495 27.1222 24.4957 27.1274C24.6948 27.1304 24.9931 27.5632 25.1208 27.6981L25.9371 26.92C26.0909 26.7719 26.2585 26.5215 26.4795 26.4789Z" fill="#191D23"/>
<path d="M13.7968 19.4877C13.9731 19.4816 14.1474 19.4916 14.3232 19.4895L23.2719 19.4801C23.8758 19.4802 24.4875 19.4595 25.0903 19.4879C25.4491 20.1094 25.7824 20.932 26.1271 21.5938C26.2229 21.7548 26.3005 21.9276 26.3749 22.0993C26.0103 22.1183 25.6438 22.1108 25.2787 22.1108L13.208 22.1107C12.9658 22.1108 12.7175 22.1213 12.4763 22.1019C12.5348 21.9591 12.5903 21.7938 12.6732 21.6635C12.9283 21.1242 13.4747 19.9672 13.7968 19.4877Z" fill="#BBF3C9"/>
<path fill-rule="evenodd" clip-rule="evenodd" d="M13.0013 22.6612C12.8187 22.6625 12.6353 22.6638 12.4539 22.65L12.435 26.9217L12.4323 27.2488C12.6737 27.2573 12.9159 27.2564 13.1578 27.2555C13.2343 27.2552 13.3109 27.255 13.3873 27.255L20.0569 27.2548C20.338 27.2548 20.6196 27.2528 20.9013 27.2509C21.5128 27.2466 22.1251 27.2423 22.735 27.2579C22.7337 27.2221 22.733 27.1861 22.733 27.15C22.733 25.5428 24.0359 24.24 25.643 24.24C25.9038 24.24 26.1565 24.2743 26.397 24.3386C26.3998 24.0917 26.3981 23.8446 26.3964 23.5975C26.3943 23.2831 26.3921 22.9687 26.3993 22.6546C25.6853 22.6711 24.9695 22.6673 24.2543 22.6635C23.9458 22.6619 23.6375 22.6603 23.3294 22.6603L13.1553 22.6605C13.104 22.6605 13.0527 22.6608 13.0013 22.6612Z" fill="#2BA84A"/>
</svg>
